# xmcd
#
# Track frame offsets:
#	150
#	12413
#	29977
#	41754
#	56204
#	69318
#	77731
#	92114
#	109328
#	120973
#	134253
#	145656
#
# Disc length: 2113 seconds
#
# Revision: 0
# Processed by: cddbd v1.5.2PL0 Copyright (c) Steve Scherf et al.
# Submitted via: audiograbber 1.83.01
#
DISCID=a9083f0c
DTITLE=Hank Williams - Hey Good Lookin' - The Songs Of Hank Williams
DYEAR=1900
DGENRE=Country
TTITLE0=Hey Good Lookin'
TTITLE1=Half As Much -Crazy Heart -I'm Sorry For You My Friend
TTITLE2=Move It On Over
TTITLE3=Mansion On The Hill
TTITLE4=You Win Again
TTITLE5=There's A Tear In My Beer
TTITLE6=Kawliga
TTITLE7=My Son Calls Another Man Daddy
TTITLE8=Baby We're Really In Love
TTITLE9=Look What Thoughts Will Do
TTITLE10=Blue Yodel No.6
TTITLE11=Wabash Cannonball
EXTD=
EXTT0=
EXTT1=
EXTT2=
EXTT3=
EXTT4=
EXTT5=
EXTT6=
EXTT7=
EXTT8=
EXTT9=
EXTT10=
EXTT11=
PLAYORDER=
